<mxfile host="app.diagrams.net" modified="2024-05-08T09:32:54.818Z" agent="Mozilla/5.0 (Windows NT 10.0; Win64; x64) AppleWebKit/537.36 (KHTML, like Gecko) Chrome/122.0.0.0 YaBrowser/24.4.0.0 Safari/537.36" etag="JfU4lZd9GdTW2BmAo2W5" version="24.3.1" type="google">
  <diagram name="Страница — 1" id="cjzfT1h5G0sfOv60kzrF">
    <mxGraphModel grid="1" page="1" gridSize="10" guides="1" tooltips="1" connect="1" arrows="1" fold="1" pageScale="1" pageWidth="827" pageHeight="1169" math="0" shadow="0">
      <root>
        <mxCell id="0" />
        <mxCell id="1" parent="0" />
        <mxCell id="oijM0vUKSh3-xH0Thj2_-1" value="Задание 1" style="swimlane;whiteSpace=wrap;html=1;" vertex="1" parent="1">
          <mxGeometry width="820" height="640" as="geometry" />
        </mxCell>
        <mxCell id="oijM0vUKSh3-xH0Thj2_-2" value="" style="edgeStyle=orthogonalEdgeStyle;rounded=0;orthogonalLoop=1;jettySize=auto;html=1;" edge="1" parent="oijM0vUKSh3-xH0Thj2_-1" source="oijM0vUKSh3-xH0Thj2_-3" target="oijM0vUKSh3-xH0Thj2_-6">
          <mxGeometry relative="1" as="geometry" />
        </mxCell>
        <mxCell id="oijM0vUKSh3-xH0Thj2_-3" value="Ввод m (размер комнаты), n (количество показателей)" style="rounded=1;whiteSpace=wrap;html=1;" vertex="1" parent="oijM0vUKSh3-xH0Thj2_-1">
          <mxGeometry x="20" y="40" width="160" height="60" as="geometry" />
        </mxCell>
        <mxCell id="oijM0vUKSh3-xH0Thj2_-4" value="" style="edgeStyle=orthogonalEdgeStyle;rounded=0;orthogonalLoop=1;jettySize=auto;html=1;" edge="1" parent="oijM0vUKSh3-xH0Thj2_-1" source="oijM0vUKSh3-xH0Thj2_-6" target="oijM0vUKSh3-xH0Thj2_-7">
          <mxGeometry relative="1" as="geometry" />
        </mxCell>
        <mxCell id="oijM0vUKSh3-xH0Thj2_-5" value="" style="edgeStyle=orthogonalEdgeStyle;rounded=0;orthogonalLoop=1;jettySize=auto;html=1;" edge="1" parent="oijM0vUKSh3-xH0Thj2_-1" source="oijM0vUKSh3-xH0Thj2_-6" target="oijM0vUKSh3-xH0Thj2_-10">
          <mxGeometry relative="1" as="geometry" />
        </mxCell>
        <mxCell id="oijM0vUKSh3-xH0Thj2_-6" value="Если m и n больше нуля" style="rhombus;whiteSpace=wrap;html=1;" vertex="1" parent="oijM0vUKSh3-xH0Thj2_-1">
          <mxGeometry x="15" y="140" width="170" height="90" as="geometry" />
        </mxCell>
        <mxCell id="oijM0vUKSh3-xH0Thj2_-7" value="Ошибка" style="rounded=1;whiteSpace=wrap;html=1;" vertex="1" parent="oijM0vUKSh3-xH0Thj2_-1">
          <mxGeometry x="250" y="155" width="120" height="60" as="geometry" />
        </mxCell>
        <mxCell id="oijM0vUKSh3-xH0Thj2_-8" value="" style="edgeStyle=orthogonalEdgeStyle;rounded=0;orthogonalLoop=1;jettySize=auto;html=1;" edge="1" parent="oijM0vUKSh3-xH0Thj2_-1" source="oijM0vUKSh3-xH0Thj2_-10" target="oijM0vUKSh3-xH0Thj2_-13">
          <mxGeometry relative="1" as="geometry" />
        </mxCell>
        <mxCell id="oijM0vUKSh3-xH0Thj2_-9" value="" style="edgeStyle=orthogonalEdgeStyle;rounded=0;orthogonalLoop=1;jettySize=auto;html=1;" edge="1" parent="oijM0vUKSh3-xH0Thj2_-1" source="oijM0vUKSh3-xH0Thj2_-10" target="oijM0vUKSh3-xH0Thj2_-16">
          <mxGeometry relative="1" as="geometry" />
        </mxCell>
        <mxCell id="oijM0vUKSh3-xH0Thj2_-10" value="Цикл от 0 до n" style="rhombus;whiteSpace=wrap;html=1;" vertex="1" parent="oijM0vUKSh3-xH0Thj2_-1">
          <mxGeometry x="20" y="270" width="160" height="90" as="geometry" />
        </mxCell>
        <mxCell id="oijM0vUKSh3-xH0Thj2_-11" value="Нет" style="text;html=1;align=center;verticalAlign=middle;whiteSpace=wrap;rounded=0;" vertex="1" parent="oijM0vUKSh3-xH0Thj2_-1">
          <mxGeometry x="185" y="155" width="60" height="30" as="geometry" />
        </mxCell>
        <mxCell id="oijM0vUKSh3-xH0Thj2_-12" value="Да" style="text;html=1;align=center;verticalAlign=middle;whiteSpace=wrap;rounded=0;" vertex="1" parent="oijM0vUKSh3-xH0Thj2_-1">
          <mxGeometry x="90" y="230" width="60" height="30" as="geometry" />
        </mxCell>
        <mxCell id="oijM0vUKSh3-xH0Thj2_-13" value="Запись показателя" style="rounded=1;whiteSpace=wrap;html=1;" vertex="1" parent="oijM0vUKSh3-xH0Thj2_-1">
          <mxGeometry x="40" y="390" width="120" height="60" as="geometry" />
        </mxCell>
        <mxCell id="oijM0vUKSh3-xH0Thj2_-14" value="" style="endArrow=classic;html=1;rounded=0;exitX=0;exitY=0.5;exitDx=0;exitDy=0;entryX=0;entryY=0.5;entryDx=0;entryDy=0;edgeStyle=orthogonalEdgeStyle;" edge="1" parent="oijM0vUKSh3-xH0Thj2_-1" source="oijM0vUKSh3-xH0Thj2_-13" target="oijM0vUKSh3-xH0Thj2_-10">
          <mxGeometry width="50" height="50" relative="1" as="geometry">
            <mxPoint x="100" y="540" as="sourcePoint" />
            <mxPoint x="150" y="490" as="targetPoint" />
            <Array as="points">
              <mxPoint x="10" y="420" />
              <mxPoint x="10" y="315" />
            </Array>
          </mxGeometry>
        </mxCell>
        <mxCell id="oijM0vUKSh3-xH0Thj2_-15" value="" style="edgeStyle=orthogonalEdgeStyle;rounded=0;orthogonalLoop=1;jettySize=auto;html=1;" edge="1" parent="oijM0vUKSh3-xH0Thj2_-1" source="oijM0vUKSh3-xH0Thj2_-16" target="oijM0vUKSh3-xH0Thj2_-18">
          <mxGeometry relative="1" as="geometry" />
        </mxCell>
        <mxCell id="oijM0vUKSh3-xH0Thj2_-16" value="Цикл от 0 до n-1 в elem1" style="rhombus;whiteSpace=wrap;html=1;" vertex="1" parent="oijM0vUKSh3-xH0Thj2_-1">
          <mxGeometry x="230" y="270" width="160" height="90" as="geometry" />
        </mxCell>
        <mxCell id="oijM0vUKSh3-xH0Thj2_-17" value="" style="edgeStyle=orthogonalEdgeStyle;rounded=0;orthogonalLoop=1;jettySize=auto;html=1;" edge="1" parent="oijM0vUKSh3-xH0Thj2_-1" source="oijM0vUKSh3-xH0Thj2_-18" target="oijM0vUKSh3-xH0Thj2_-20">
          <mxGeometry relative="1" as="geometry" />
        </mxCell>
        <mxCell id="oijM0vUKSh3-xH0Thj2_-18" value="Цикл от&amp;nbsp;elem1 + 1 до n в elem2" style="rhombus;whiteSpace=wrap;html=1;" vertex="1" parent="oijM0vUKSh3-xH0Thj2_-1">
          <mxGeometry x="230" y="375" width="160" height="90" as="geometry" />
        </mxCell>
        <mxCell id="oijM0vUKSh3-xH0Thj2_-19" value="" style="edgeStyle=orthogonalEdgeStyle;rounded=0;orthogonalLoop=1;jettySize=auto;html=1;" edge="1" parent="oijM0vUKSh3-xH0Thj2_-1" source="oijM0vUKSh3-xH0Thj2_-20" target="oijM0vUKSh3-xH0Thj2_-22">
          <mxGeometry relative="1" as="geometry" />
        </mxCell>
        <mxCell id="oijM0vUKSh3-xH0Thj2_-20" value="Если pokaz[elem1] + pokaz[elem2]&amp;nbsp;% m == 0" style="rhombus;whiteSpace=wrap;html=1;" vertex="1" parent="oijM0vUKSh3-xH0Thj2_-1">
          <mxGeometry x="430" y="375" width="160" height="90" as="geometry" />
        </mxCell>
        <mxCell id="oijM0vUKSh3-xH0Thj2_-21" value="" style="edgeStyle=orthogonalEdgeStyle;rounded=0;orthogonalLoop=1;jettySize=auto;html=1;" edge="1" parent="oijM0vUKSh3-xH0Thj2_-1" source="oijM0vUKSh3-xH0Thj2_-22" target="oijM0vUKSh3-xH0Thj2_-28">
          <mxGeometry relative="1" as="geometry" />
        </mxCell>
        <mxCell id="oijM0vUKSh3-xH0Thj2_-22" value="Добавить в&amp;nbsp;proiz (pokaz[elem1] * pokaz[elem2])" style="rounded=1;whiteSpace=wrap;html=1;" vertex="1" parent="oijM0vUKSh3-xH0Thj2_-1">
          <mxGeometry x="450" y="285" width="120" height="60" as="geometry" />
        </mxCell>
        <mxCell id="oijM0vUKSh3-xH0Thj2_-23" value="Да" style="text;html=1;align=center;verticalAlign=middle;whiteSpace=wrap;rounded=0;" vertex="1" parent="oijM0vUKSh3-xH0Thj2_-1">
          <mxGeometry x="500" y="345" width="60" height="30" as="geometry" />
        </mxCell>
        <mxCell id="oijM0vUKSh3-xH0Thj2_-24" value="" style="endArrow=classic;html=1;rounded=0;exitX=0.5;exitY=1;exitDx=0;exitDy=0;entryX=0.5;entryY=1;entryDx=0;entryDy=0;edgeStyle=orthogonalEdgeStyle;" edge="1" parent="oijM0vUKSh3-xH0Thj2_-1" source="oijM0vUKSh3-xH0Thj2_-20" target="oijM0vUKSh3-xH0Thj2_-18">
          <mxGeometry width="50" height="50" relative="1" as="geometry">
            <mxPoint x="500" y="550" as="sourcePoint" />
            <mxPoint x="550" y="500" as="targetPoint" />
            <Array as="points">
              <mxPoint x="510" y="490" />
              <mxPoint x="310" y="490" />
            </Array>
          </mxGeometry>
        </mxCell>
        <mxCell id="oijM0vUKSh3-xH0Thj2_-25" value="Нет" style="text;html=1;align=center;verticalAlign=middle;whiteSpace=wrap;rounded=0;" vertex="1" parent="oijM0vUKSh3-xH0Thj2_-1">
          <mxGeometry x="500" y="460" width="60" height="30" as="geometry" />
        </mxCell>
        <mxCell id="oijM0vUKSh3-xH0Thj2_-26" value="" style="edgeStyle=orthogonalEdgeStyle;rounded=0;orthogonalLoop=1;jettySize=auto;html=1;entryX=0.5;entryY=1;entryDx=0;entryDy=0;" edge="1" parent="oijM0vUKSh3-xH0Thj2_-1" source="oijM0vUKSh3-xH0Thj2_-28" target="oijM0vUKSh3-xH0Thj2_-18">
          <mxGeometry relative="1" as="geometry">
            <mxPoint x="690" y="390" as="targetPoint" />
            <Array as="points">
              <mxPoint x="690" y="500" />
              <mxPoint x="310" y="500" />
            </Array>
          </mxGeometry>
        </mxCell>
        <mxCell id="oijM0vUKSh3-xH0Thj2_-27" value="" style="edgeStyle=orthogonalEdgeStyle;rounded=0;orthogonalLoop=1;jettySize=auto;html=1;" edge="1" parent="oijM0vUKSh3-xH0Thj2_-1" source="oijM0vUKSh3-xH0Thj2_-28" target="oijM0vUKSh3-xH0Thj2_-30">
          <mxGeometry relative="1" as="geometry" />
        </mxCell>
        <mxCell id="oijM0vUKSh3-xH0Thj2_-28" value="Если&amp;nbsp;pokaz[elem1] * pokaz[elem2] == максимальное значение" style="rhombus;whiteSpace=wrap;html=1;" vertex="1" parent="oijM0vUKSh3-xH0Thj2_-1">
          <mxGeometry x="610" y="270" width="160" height="90" as="geometry" />
        </mxCell>
        <mxCell id="oijM0vUKSh3-xH0Thj2_-29" value="" style="endArrow=classic;html=1;rounded=0;exitX=0;exitY=0.5;exitDx=0;exitDy=0;entryX=0;entryY=0.5;entryDx=0;entryDy=0;edgeStyle=orthogonalEdgeStyle;" edge="1" parent="oijM0vUKSh3-xH0Thj2_-1" source="oijM0vUKSh3-xH0Thj2_-18" target="oijM0vUKSh3-xH0Thj2_-16">
          <mxGeometry width="50" height="50" relative="1" as="geometry">
            <mxPoint x="200" y="550" as="sourcePoint" />
            <mxPoint x="250" y="500" as="targetPoint" />
            <Array as="points">
              <mxPoint x="200" y="420" />
              <mxPoint x="200" y="315" />
            </Array>
          </mxGeometry>
        </mxCell>
        <mxCell id="oijM0vUKSh3-xH0Thj2_-30" value="res1, res2 = pokaz[elem1], pokaz[elem2]" style="rounded=1;whiteSpace=wrap;html=1;" vertex="1" parent="oijM0vUKSh3-xH0Thj2_-1">
          <mxGeometry x="630" y="180" width="120" height="60" as="geometry" />
        </mxCell>
        <mxCell id="oijM0vUKSh3-xH0Thj2_-31" value="Нет" style="text;html=1;align=center;verticalAlign=middle;whiteSpace=wrap;rounded=0;" vertex="1" parent="oijM0vUKSh3-xH0Thj2_-1">
          <mxGeometry x="680" y="360" width="60" height="30" as="geometry" />
        </mxCell>
        <mxCell id="oijM0vUKSh3-xH0Thj2_-32" value="Да" style="text;html=1;align=center;verticalAlign=middle;whiteSpace=wrap;rounded=0;" vertex="1" parent="oijM0vUKSh3-xH0Thj2_-1">
          <mxGeometry x="680" y="240" width="60" height="30" as="geometry" />
        </mxCell>
      </root>
    </mxGraphModel>
  </diagram>
</mxfile>
